<svg id="Layer_25" data-name="Layer 25" xmlns="http://www.w3.org/2000/svg" xmlns:xlink="http://www.w3.org/1999/xlink" viewBox="0 0 163.57 254.5"><defs><style>.cls-1,.cls-7{fill:none;}.cls-2{fill:url(#radial-gradient);}.cls-3{fill:url(#radial-gradient-2);}.cls-4{opacity:0.45;}.cls-5{fill:url(#linear-gradient);}.cls-6{fill:url(#linear-gradient-2);}.cls-7{stroke:#cc5c09;stroke-linecap:round;stroke-miterlimit:10;stroke-width:6px;}.cls-8{fill:#cc5c09;}</style><radialGradient id="radial-gradient" cx="81.79" cy="153.65" r="81.79" gradientUnits="userSpaceOnUse"><stop offset="0" stop-color="#fff"/><stop offset="0" stop-color="#ff9e5b"/><stop offset="1" stop-color="#fff062"/></radialGradient><radialGradient id="radial-gradient-2" cx="484.15" cy="285.5" r="143.35" xlink:href="#radial-gradient"/><linearGradient id="linear-gradient" x1="481.38" y1="246.19" x2="481.38" y2="164.31" gradientUnits="userSpaceOnUse"><stop offset="0" stop-color="#fff"/><stop offset="0" stop-color="#ff8d55"/><stop offset="0.16" stop-color="#ffa251" stop-opacity="0.79"/><stop offset="0.39" stop-color="#ffbc4b" stop-opacity="0.51"/><stop offset="0.6" stop-color="#ffd146" stop-opacity="0.29"/><stop offset="0.78" stop-color="#ffe043" stop-opacity="0.13"/><stop offset="0.92" stop-color="#ffea41" stop-opacity="0.04"/><stop offset="1" stop-color="#ffed40" stop-opacity="0"/></linearGradient><linearGradient id="linear-gradient-2" x1="481.38" y1="92.43" x2="481.38" y2="180.31" gradientUnits="userSpaceOnUse"><stop offset="0" stop-color="#fff"/><stop offset="1" stop-color="#ffed40" stop-opacity="0"/></linearGradient></defs><title>alpha</title><rect class="cls-1" width="163.57" height="254.5"/><circle class="cls-2" cx="81.79" cy="153.65" r="81.79"/><path class="cls-3" d="M481.38,246.19a76.88,76.88,0,1,1,76.88-76.88A77,77,0,0,1,481.38,246.19Z" transform="translate(-399.59 -14.91)"/><g class="cls-4"><path class="cls-5" d="M481.38,236.19a77,77,0,0,1-76.7-71.88c-0.11,1.65-.18,3.32-0.18,5a76.88,76.88,0,1,0,153.77,0c0-1.68-.07-3.35-0.18-5A77,77,0,0,1,481.38,236.19Z" transform="translate(-399.59 -14.91)"/></g><path class="cls-6" d="M481.38,114.43a77,77,0,0,1,76.08,65.88,76.88,76.88,0,1,0-152.17,0A77,77,0,0,1,481.38,114.43Z" transform="translate(-399.59 -14.91)"/><path class="cls-7" d="M468.35,206.17c1.51,0.81,4.37,3.08,13.61,3.08a26.11,26.11,0,0,0,12.33-3.08" transform="translate(-399.59 -14.91)"/><rect class="cls-8" x="512.09" y="153.1" width="7.33" height="28.29" rx="3.67" ry="3.67" transform="translate(-153.55 622.68) rotate(-78.13)"/><rect class="cls-8" x="443.33" y="153.1" width="7.33" height="28.29" rx="3.67" ry="3.67" transform="translate(-24.36 624.17) rotate(-101.87)"/></svg>