<svg id="Layer_25" data-name="Layer 25" xmlns="http://www.w3.org/2000/svg" xmlns:xlink="http://www.w3.org/1999/xlink" viewBox="0 0 163.57 254.63"><defs><style>.cls-1,.cls-2,.cls-8{fill:none;}.cls-10,.cls-2,.cls-8{stroke:#cc5c09;}.cls-2,.cls-8{stroke-linecap:round;}.cls-2{stroke-linejoin:round;stroke-width:3px;}.cls-3{fill:url(#radial-gradient);}.cls-4{fill:url(#radial-gradient-2);}.cls-5{opacity:0.45;}.cls-6{fill:url(#linear-gradient);}.cls-7{fill:url(#linear-gradient-2);}.cls-10,.cls-8{stroke-miterlimit:10;}.cls-8{stroke-width:6px;}.cls-9{fill:#cc5c09;}.cls-10{fill:#fff;stroke-width:4px;}</style><radialGradient id="radial-gradient" cx="81.79" cy="153.65" r="81.79" gradientUnits="userSpaceOnUse"><stop offset="0" stop-color="#fff"/><stop offset="0" stop-color="#ff9e5b"/><stop offset="1" stop-color="#fff062"/></radialGradient><radialGradient id="radial-gradient-2" cx="874.84" cy="285.5" r="143.35" xlink:href="#radial-gradient"/><linearGradient id="linear-gradient" x1="872.07" y1="246.19" x2="872.07" y2="164.31" gradientUnits="userSpaceOnUse"><stop offset="0" stop-color="#fff"/><stop offset="0" stop-color="#ff8d55"/><stop offset="0.16" stop-color="#ffa251" stop-opacity="0.79"/><stop offset="0.39" stop-color="#ffbc4b" stop-opacity="0.51"/><stop offset="0.6" stop-color="#ffd146" stop-opacity="0.29"/><stop offset="0.78" stop-color="#ffe043" stop-opacity="0.13"/><stop offset="0.92" stop-color="#ffea41" stop-opacity="0.04"/><stop offset="1" stop-color="#ffed40" stop-opacity="0"/></linearGradient><linearGradient id="linear-gradient-2" x1="872.07" y1="92.43" x2="872.07" y2="180.31" gradientUnits="userSpaceOnUse"><stop offset="0" stop-color="#fff"/><stop offset="1" stop-color="#ffed40" stop-opacity="0"/></linearGradient></defs><title>beta</title><rect class="cls-1" width="163.57" height="254.5"/><g id="Layer_24" data-name="Layer 24"><circle class="cls-2" cx="57.11" cy="63.22" r="3.77"/><path class="cls-2" d="M818.09,58.57s1.9,11.9,13.56,11.9c10.24,0,11.75-5.85,11.75-5.85s8.44,10,19.95,5.85c12.07-4.37,7.38-13,7.38-13s15.35,2.5,15.35-10c0-12.85-12.49-12.56-12.49-12.56s2.81-12-10.24-15.64c-11.8-3.33-15.95,6.42-15.95,6.42s-4.28-11.41-19.51-8.12C816.88,20,817.12,34,817.12,34s-14.68-.58-14.26,12.75C803.26,59.6,818.09,58.57,818.09,58.57Z" transform="translate(-790.28 -14.91)"/><circle class="cls-2" cx="68.55" cy="66.9" r="2.48"/></g><g id="Layer_23" data-name="Layer 23"><circle class="cls-3" cx="81.79" cy="153.65" r="81.79"/><path class="cls-4" d="M872.07,246.19A76.88,76.88,0,1,1,949,169.31,77,77,0,0,1,872.07,246.19Z" transform="translate(-790.28 -14.91)"/><g class="cls-5"><path class="cls-6" d="M872.07,236.19a77,77,0,0,1-76.7-71.88c-0.11,1.65-.18,3.32-0.18,5a76.88,76.88,0,0,0,153.77,0c0-1.68-.07-3.35-0.18-5A77,77,0,0,1,872.07,236.19Z" transform="translate(-790.28 -14.91)"/></g><path class="cls-7" d="M872.07,114.43a77,77,0,0,1,76.08,65.88,76.88,76.88,0,1,0-152.17,0A77,77,0,0,1,872.07,114.43Z" transform="translate(-790.28 -14.91)"/><path class="cls-8" d="M851,193.63c1.51-.81,4.37-2.08,13.61-2.08,7.7,0,13.36,2.66,12.33,2.08" transform="translate(-790.28 -14.91)"/><rect class="cls-9" x="39.54" y="121.11" width="7.33" height="28.29" rx="3.67" ry="3.67"/><rect class="cls-9" x="99.33" y="121.11" width="7.33" height="28.29" rx="3.67" ry="3.67"/></g><g id="Layer_22" data-name="Layer 22"><path class="cls-10" d="M816.38,242c-0.29-9.46,4.65-13.71,8.88-16.94,4-3,7.36-6.65,8.24-11.62,1.41-8,9-17.69,13.36-5.31,2.49,7.08-6.35,17.06-1.22,19.06,2.66,1,36.21-10.66,41.17-3.78,6.09,8.45-25.52,11.93-26.61,12.56s4.3-2.31,6.19,2.47a11.12,11.12,0,0,1,.56,5s1.25,1.13,1.44,4.75a10.85,10.85,0,0,1-1.12,4.69,8,8,0,0,1,.88,5.87c-1.93,9-24.5,9.69-34.63,8.21C823,265.41,816.62,250,816.38,242Z" transform="translate(-790.28 -14.91)"/></g></svg>