<svg id="Layer_25" data-name="Layer 25" xmlns="http://www.w3.org/2000/svg" xmlns:xlink="http://www.w3.org/1999/xlink" viewBox="0 0 163.57 254.5"><defs><style>.cls-1,.cls-8,.cls-9{fill:none;}.cls-2{fill:url(#radial-gradient);}.cls-3{fill:url(#radial-gradient-2);}.cls-4{opacity:0.45;}.cls-5{fill:url(#linear-gradient);}.cls-6{fill:url(#linear-gradient-2);}.cls-7{fill:#cc5c09;}.cls-8,.cls-9{stroke:#cc5c09;stroke-linecap:round;}.cls-8{stroke-miterlimit:10;stroke-width:6px;}.cls-9{stroke-linejoin:round;stroke-width:3px;}</style><radialGradient id="radial-gradient" cx="81.79" cy="153.9" r="81.79" gradientUnits="userSpaceOnUse"><stop offset="0" stop-color="#fff"/><stop offset="0" stop-color="#ff9e5b"/><stop offset="1" stop-color="#fff062"/></radialGradient><radialGradient id="radial-gradient-2" cx="281.36" cy="285.74" r="143.35" xlink:href="#radial-gradient"/><linearGradient id="linear-gradient" x1="278.59" y1="246.44" x2="278.59" y2="164.56" gradientUnits="userSpaceOnUse"><stop offset="0" stop-color="#fff"/><stop offset="0" stop-color="#ff8d55"/><stop offset="0.16" stop-color="#ffa251" stop-opacity="0.79"/><stop offset="0.39" stop-color="#ffbc4b" stop-opacity="0.51"/><stop offset="0.6" stop-color="#ffd146" stop-opacity="0.29"/><stop offset="0.78" stop-color="#ffe043" stop-opacity="0.13"/><stop offset="0.92" stop-color="#ffea41" stop-opacity="0.04"/><stop offset="1" stop-color="#ffed40" stop-opacity="0"/></linearGradient><linearGradient id="linear-gradient-2" x1="278.59" y1="92.68" x2="278.59" y2="180.56" gradientUnits="userSpaceOnUse"><stop offset="0" stop-color="#fff"/><stop offset="1" stop-color="#ffed40" stop-opacity="0"/></linearGradient></defs><title>delta</title><rect class="cls-1" width="163.57" height="254.5"/><g id="Layer_26" data-name="Layer 26"><circle class="cls-2" cx="81.79" cy="153.9" r="81.79"/><path class="cls-3" d="M278.59,246.44a76.88,76.88,0,1,1,76.88-76.88A77,77,0,0,1,278.59,246.44Z" transform="translate(-196.8 -14.91)"/><g class="cls-4"><path class="cls-5" d="M278.59,236.44a77,77,0,0,1-76.7-71.88c-0.11,1.65-.18,3.32-0.18,5a76.88,76.88,0,1,0,153.77,0c0-1.68-.07-3.35-0.18-5A77,77,0,0,1,278.59,236.44Z" transform="translate(-196.8 -14.91)"/></g><path class="cls-6" d="M278.59,114.68a77,77,0,0,1,76.08,65.88,76.88,76.88,0,1,0-152.17,0A77,77,0,0,1,278.59,114.68Z" transform="translate(-196.8 -14.91)"/><ellipse class="cls-7" cx="81.79" cy="194.57" rx="8.03" ry="6.06"/><path class="cls-8" d="M299.59,174.76c2.33,1.67,2.33,1.67,7,2.67s11.67-.33,15.33-2.67" transform="translate(-196.8 -14.91)"/><path class="cls-8" d="M235.64,174.87c1.88,0.83,3.58,2.18,6.46,2.64,6.08,1,12.21.24,14.87-2.89" transform="translate(-196.8 -14.91)"/><polyline class="cls-9" points="136.76 50.54 147.45 50.54 136.76 61.13 147.45 61.13"/><polyline class="cls-9" points="125.12 67.6 132.29 67.6 125.12 74.69 132.29 74.69"/></g></svg>