<svg id="Layer_25" data-name="Layer 25" xmlns="http://www.w3.org/2000/svg" xmlns:xlink="http://www.w3.org/1999/xlink" viewBox="0 0 163.9 254.5"><defs><style>.cls-1,.cls-10,.cls-8,.cls-9{fill:none;}.cls-2{fill:url(#radial-gradient);}.cls-3{fill:url(#radial-gradient-2);}.cls-4{opacity:0.45;}.cls-5{fill:url(#linear-gradient);}.cls-6{fill:url(#linear-gradient-2);}.cls-7{fill:#cc5c09;}.cls-10,.cls-8,.cls-9{stroke:#cc5c09;stroke-linecap:round;stroke-linejoin:round;}.cls-8{stroke-width:2px;}.cls-10{stroke-width:3px;}</style><radialGradient id="radial-gradient" cx="81.79" cy="153.8" r="81.79" gradientUnits="userSpaceOnUse"><stop offset="0" stop-color="#fff"/><stop offset="0" stop-color="#ff9e5b"/><stop offset="1" stop-color="#fff062"/></radialGradient><radialGradient id="radial-gradient-2" cx="100.36" cy="285.64" r="143.35" xlink:href="#radial-gradient"/><linearGradient id="linear-gradient" x1="97.59" y1="246.34" x2="97.59" y2="164.46" gradientUnits="userSpaceOnUse"><stop offset="0" stop-color="#fff"/><stop offset="0" stop-color="#ff8d55"/><stop offset="0.16" stop-color="#ffa251" stop-opacity="0.79"/><stop offset="0.39" stop-color="#ffbc4b" stop-opacity="0.51"/><stop offset="0.6" stop-color="#ffd146" stop-opacity="0.29"/><stop offset="0.78" stop-color="#ffe043" stop-opacity="0.13"/><stop offset="0.92" stop-color="#ffea41" stop-opacity="0.04"/><stop offset="1" stop-color="#ffed40" stop-opacity="0"/></linearGradient><linearGradient id="linear-gradient-2" x1="97.59" y1="92.58" x2="97.59" y2="180.46" gradientUnits="userSpaceOnUse"><stop offset="0" stop-color="#fff"/><stop offset="1" stop-color="#ffed40" stop-opacity="0"/></linearGradient></defs><title>gamma</title><rect class="cls-1" width="163.57" height="254.5"/><g id="Layer_27" data-name="Layer 27"><circle class="cls-2" cx="81.79" cy="153.8" r="81.79"/><path class="cls-3" d="M97.59,246.34a76.88,76.88,0,1,1,76.88-76.88A77,77,0,0,1,97.59,246.34Z" transform="translate(-15.8 -14.91)"/><g class="cls-4"><path class="cls-5" d="M97.59,236.34a77,77,0,0,1-76.7-71.88c-0.11,1.65-.18,3.32-0.18,5a76.88,76.88,0,0,0,153.77,0c0-1.68-.07-3.35-0.18-5A77,77,0,0,1,97.59,236.34Z" transform="translate(-15.8 -14.91)"/></g><path class="cls-6" d="M97.59,114.58a77,77,0,0,1,76.08,65.88,76.88,76.88,0,1,0-152.17,0A77,77,0,0,1,97.59,114.58Z" transform="translate(-15.8 -14.91)"/><path class="cls-7" d="M107.26,200.46c0,5.34,0,9.67-9.67,9.67s-9.67-4.33-9.67-9.67A9.67,9.67,0,0,1,107.26,200.46Z" transform="translate(-15.8 -14.91)"/><rect class="cls-7" x="108.12" y="129.88" width="7.33" height="28.29" rx="3.67" ry="3.67"/><rect class="cls-7" x="48.12" y="129.88" width="7.33" height="28.29" rx="3.67" ry="3.67"/><line class="cls-8" x1="162.9" y1="58.68" x2="159.15" y2="58.64"/><line class="cls-8" x1="161.87" y1="48.17" x2="157.23" y2="50.2"/><line class="cls-8" x1="154.76" y1="38.65" x2="151.41" y2="42.89"/><line class="cls-8" x1="141.14" y1="34.92" x2="141.26" y2="40.54"/><line class="cls-8" x1="119.95" y1="48.11" x2="124.55" y2="50.19"/><line class="cls-8" x1="119.32" y1="58.92" x2="124.24" y2="58.92"/><path class="cls-9" d="M155.88,89.2S155,79,153.66,78.2s1.34,1.13,2.09,1.38,1.59-2.25,1.59-2.25,0.79,2.63,1.29,2.5,2.39-2.5,1.85-1.5c-1.39,2.56-1.72,10.88-1.72,10.88" transform="translate(-15.8 -14.91)"/><path class="cls-10" d="M170.56,73.88a13.22,13.22,0,0,0-26.45,0c0,5.47,2.39,10.16,7.12,12.17V91h12.21V86.05C168.17,84,170.56,79.35,170.56,73.88Z" transform="translate(-15.8 -14.91)"/><line class="cls-8" x1="137.86" y1="82.74" x2="145.21" y2="82.74"/><line class="cls-8" x1="136.6" y1="79.61" x2="146.47" y2="79.61"/><line class="cls-8" x1="128.08" y1="38.65" x2="131.74" y2="43"/></g></svg>