<svg id="Layer_25" data-name="Layer 25" xmlns="http://www.w3.org/2000/svg" xmlns:xlink="http://www.w3.org/1999/xlink" viewBox="0 0 163.57 254.5"><defs><style>.cls-1,.cls-8,.cls-9{fill:none;}.cls-2{fill:url(#radial-gradient);}.cls-3{fill:url(#radial-gradient-2);}.cls-4{opacity:0.45;}.cls-5{fill:url(#linear-gradient);}.cls-6{fill:url(#linear-gradient-2);}.cls-7{fill:#cc5c09;}.cls-8,.cls-9{stroke:#cc5c09;stroke-linecap:round;}.cls-8{stroke-miterlimit:10;stroke-width:6px;}.cls-9{stroke-linejoin:round;stroke-width:3px;}</style><radialGradient id="radial-gradient" cx="81.79" cy="153.65" r="81.79" gradientUnits="userSpaceOnUse"><stop offset="0" stop-color="#fff"/><stop offset="0" stop-color="#ff9e5b"/><stop offset="1" stop-color="#fff062"/></radialGradient><radialGradient id="radial-gradient-2" cx="675.84" cy="285.5" r="143.35" xlink:href="#radial-gradient"/><linearGradient id="linear-gradient" x1="673.07" y1="246.19" x2="673.07" y2="164.31" gradientUnits="userSpaceOnUse"><stop offset="0" stop-color="#fff"/><stop offset="0" stop-color="#ff8d55"/><stop offset="0.16" stop-color="#ffa251" stop-opacity="0.79"/><stop offset="0.39" stop-color="#ffbc4b" stop-opacity="0.51"/><stop offset="0.6" stop-color="#ffd146" stop-opacity="0.29"/><stop offset="0.78" stop-color="#ffe043" stop-opacity="0.13"/><stop offset="0.92" stop-color="#ffea41" stop-opacity="0.04"/><stop offset="1" stop-color="#ffed40" stop-opacity="0"/></linearGradient><linearGradient id="linear-gradient-2" x1="673.07" y1="92.43" x2="673.07" y2="180.31" gradientUnits="userSpaceOnUse"><stop offset="0" stop-color="#fff"/><stop offset="1" stop-color="#ffed40" stop-opacity="0"/></linearGradient></defs><title>theta</title><rect class="cls-1" width="163.57" height="254.5"/><g id="face"><circle class="cls-2" cx="81.79" cy="153.65" r="81.79"/><path class="cls-3" d="M673.07,246.19A76.88,76.88,0,1,1,750,169.31,77,77,0,0,1,673.07,246.19Z" transform="translate(-591.28 -14.91)"/><g class="cls-4"><path class="cls-5" d="M673.07,236.19a77,77,0,0,1-76.7-71.88c-0.11,1.65-.18,3.32-0.18,5a76.88,76.88,0,1,0,153.77,0c0-1.68-.07-3.35-0.18-5A77,77,0,0,1,673.07,236.19Z" transform="translate(-591.28 -14.91)"/></g><path class="cls-6" d="M673.07,114.43a77,77,0,0,1,76.08,65.88,76.88,76.88,0,1,0-152.17,0A77,77,0,0,1,673.07,114.43Z" transform="translate(-591.28 -14.91)"/><path class="cls-7" d="M619.06,155c-2.67-1.49,3.68-10.21,13-10.49s15,4.1,13,6.55-4.68.31-10.63,1.11C627.06,153.15,621.72,156.47,619.06,155Z" transform="translate(-591.28 -14.91)"/><path class="cls-7" d="M686.68,151.36c-2.17-2.15,6.27-8.86,15.34-6.64s13.35,8,10.77,9.78-4.6-1-10.54-1.76C694.88,151.73,688.86,153.5,686.68,151.36Z" transform="translate(-591.28 -14.91)"/><path class="cls-8" d="M653.17,191.14c1.51,0.81,4.37,3.08,13.61,3.08a26.11,26.11,0,0,0,12.33-3.08" transform="translate(-591.28 -14.91)"/></g><g id="Layer_21" data-name="Layer 21"><circle class="cls-9" cx="57.11" cy="63.22" r="3.77"/><path class="cls-9" d="M619.09,58.57s1.9,11.9,13.56,11.9c10.24,0,11.75-5.85,11.75-5.85s8.44,10,19.95,5.85c12.07-4.37,7.38-13,7.38-13s15.35,2.5,15.35-10c0-12.85-12.49-12.56-12.49-12.56s2.81-12-10.24-15.64c-11.8-3.33-15.95,6.42-15.95,6.42s-4.28-11.41-19.51-8.12C617.88,20,618.12,34,618.12,34s-14.68-.58-14.26,12.75C604.26,59.6,619.09,58.57,619.09,58.57Z" transform="translate(-591.28 -14.91)"/><circle class="cls-9" cx="68.55" cy="66.9" r="2.48"/></g></svg>